<svg width="327" height="79" viewBox="0 0 327 79" fill="none" xmlns="http://www.w3.org/2000/svg">
<path d="M308.1 0L313.079 13.4547L326.533 18.4333L313.079 23.412L308.1 36.8667L303.121 23.412L289.667 18.4333L303.121 13.4547L308.1 0Z" fill="#DBFF00"/>
<path d="M3.12843 64.4331V31.2531H9.38523V58.7451H24.5532V64.4331H3.12843ZM46.6161 65.0967C43.8985 65.0967 41.5601 64.6069 39.6009 63.6273C37.6733 62.6161 36.1881 61.1941 35.1453 59.3613C34.1341 57.4969 33.6285 55.3007 33.6285 52.7727V31.2531H39.8853V52.9623C39.8853 54.9847 40.4541 56.5805 41.5917 57.7497C42.7609 58.9189 44.4357 59.5035 46.6161 59.5035C48.7965 59.5035 50.4555 58.9189 51.5931 57.7497C52.7623 56.5805 53.3469 54.9847 53.3469 52.9623V31.2531H59.6037V52.7727C59.6037 55.3007 59.0823 57.4969 58.0395 59.3613C57.0283 61.1941 55.5431 62.6161 53.5839 63.6273C51.6563 64.6069 49.3337 65.0967 46.6161 65.0967ZM71.5899 64.4331V31.2531H83.2029L88.9383 60.1671H89.7915L95.5269 31.2531H107.14V64.4331H101.073V35.8509H100.22L94.5315 64.4331H84.1983L78.5103 35.8509H77.6571V64.4331H71.5899ZM119.314 64.4331V31.2531H125.571V64.4331H119.314ZM137.737 64.4331V31.2531H149.634L156.223 60.1671H157.076V31.2531H163.238V64.4331H151.341L144.752 35.5191H143.899V64.4331H137.737ZM173.141 64.4331L181.863 31.2531H192.765L201.486 64.4331H195.04L193.239 57.1335H181.389L179.588 64.4331H173.141ZM182.858 51.3507H191.769L187.74 35.1873H186.887L182.858 51.3507ZM211.383 64.4331V31.2531H217.64V64.4331H211.383ZM229.806 64.4331V31.2531H244.216C246.301 31.2531 248.118 31.6165 249.667 32.3433C251.215 33.0701 252.416 34.0971 253.269 35.4243C254.122 36.7515 254.549 38.3157 254.549 40.1169V40.6857C254.549 42.6765 254.075 44.2881 253.127 45.5205C252.179 46.7529 251.01 47.6535 249.619 48.2223V49.0755C250.883 49.1387 251.863 49.5811 252.558 50.4027C253.253 51.1927 253.601 52.2513 253.601 53.5785V64.4331H247.344V54.4791C247.344 53.7207 247.139 53.1045 246.728 52.6305C246.349 52.1565 245.701 51.9195 244.784 51.9195H236.063V64.4331H229.806ZM236.063 46.2315H243.552C245.037 46.2315 246.191 45.8365 247.012 45.0465C247.865 44.2249 248.292 43.1505 248.292 41.8233V41.3493C248.292 40.0221 247.881 38.9635 247.06 38.1735C246.238 37.3519 245.069 36.9411 243.552 36.9411H236.063V46.2315ZM265.68 64.4331V31.2531H287.01V36.9411H271.937V44.8569H285.683V50.5449H271.937V58.7451H287.294V64.4331H265.68Z" fill="#DBFF00"/>
</svg>
