<svg width="174" height="42" viewBox="0 0 174 42" fill="none" xmlns="http://www.w3.org/2000/svg">
<path d="M163.8 0L166.447 7.15311L173.6 9.8L166.447 12.4469L163.8 19.6L161.153 12.4469L154 9.8L161.153 7.15311L163.8 0Z" fill="#DBFF00"/>
<path d="M1.6632 34.8V17.16H4.9896V31.776H13.0536V34.8H1.6632ZM24.7832 35.1528C23.3384 35.1528 22.0952 34.8924 21.0536 34.3716C20.0288 33.834 19.2392 33.078 18.6848 32.1036C18.1472 31.1124 17.8784 29.9448 17.8784 28.6008V17.16H21.2048V28.7016C21.2048 29.7768 21.5072 30.6252 22.112 31.2468C22.7336 31.8684 23.624 32.1792 24.7832 32.1792C25.9424 32.1792 26.8244 31.8684 27.4292 31.2468C28.0508 30.6252 28.3616 29.7768 28.3616 28.7016V17.16H31.688V28.6008C31.688 29.9448 31.4108 31.1124 30.8564 32.1036C30.3188 33.078 29.5292 33.834 28.4876 34.3716C27.4628 34.8924 26.228 35.1528 24.7832 35.1528ZM38.0605 34.8V17.16H44.2345L47.2837 32.532H47.7373L50.7865 17.16H56.9605V34.8H53.7349V19.6044H53.2813L50.2573 34.8H44.7637L41.7397 19.6044H41.2861V34.8H38.0605ZM63.4327 34.8V17.16H66.7591V34.8H63.4327ZM73.2273 34.8V17.16H79.5525L83.0553 32.532H83.5089V17.16H86.7849V34.8H80.4597L76.9569 19.428H76.5033V34.8H73.2273ZM92.0497 34.8L96.6865 17.16H102.482L107.119 34.8H103.692L102.734 30.9192H96.4345L95.4769 34.8H92.0497ZM97.2157 27.8448H101.953L99.8113 19.2516H99.3577L97.2157 27.8448ZM112.381 34.8V17.16H115.707V34.8H112.381ZM122.175 34.8V17.16H129.836C130.945 17.16 131.911 17.3532 132.734 17.7396C133.557 18.126 134.196 18.672 134.649 19.3776C135.103 20.0832 135.33 20.9148 135.33 21.8724V22.1748C135.33 23.2332 135.078 24.09 134.574 24.7452C134.07 25.4004 133.448 25.8792 132.709 26.1816V26.6352C133.381 26.6688 133.902 26.904 134.271 27.3408C134.641 27.7608 134.826 28.3236 134.826 29.0292V34.8H131.499V29.508C131.499 29.1048 131.39 28.7772 131.172 28.5252C130.97 28.2732 130.626 28.1472 130.139 28.1472H125.502V34.8H122.175ZM125.502 25.1232H129.483C130.273 25.1232 130.886 24.9132 131.323 24.4932C131.777 24.0564 132.003 23.4852 132.003 22.7796V22.5276C132.003 21.822 131.785 21.2592 131.348 20.8392C130.911 20.4024 130.29 20.184 129.483 20.184H125.502V25.1232ZM141.248 34.8V17.16H152.588V20.184H144.574V24.3924H151.882V27.4164H144.574V31.776H152.739V34.8H141.248Z" fill="#DBFF00"/>
</svg>
